<svg width="18" height="18" viewBox="0 0 18 18" fill="none" xmlns="http://www.w3.org/2000/svg">
<path fill-rule="evenodd" clip-rule="evenodd" d="M4.03325 13.25C4.03325 13.25 5.58197 12.2812 6.48539 11.9687C7.38881 11.6562 8.33525 11.5 9.32471 11.5C10.3142 11.5 11.2606 11.6562 12.164 11.9687C13.0675 12.2812 13.8848 12.7083 14.6162 13.25C15.1181 12.6805 15.5088 12.0347 15.7885 11.3125C16.0681 10.5902 16.2079 9.8194 16.2079 8.99996C16.2079 7.15274 15.5375 5.57982 14.1967 4.28121C12.8559 2.9826 11.2319 2.33329 9.32471 2.33329C7.41749 2.33329 5.79348 2.9826 4.45269 4.28121C3.1119 5.57982 2.4415 7.15274 2.4415 8.99996C2.4415 9.8194 2.58132 10.5902 2.86095 11.3125C3.14058 12.0347 4.03325 13.25 4.03325 13.25ZM7.18446 8.98954C7.76523 9.55204 8.47865 9.83329 9.32471 9.83329C10.1708 9.83329 10.8842 9.55204 11.465 8.98954C12.0457 8.42704 12.3361 7.73607 12.3361 6.91663C12.3361 6.09718 12.0457 5.40621 11.465 4.84371C10.8842 4.28121 10.1708 3.99996 9.32471 3.99996C8.47865 3.99996 7.76523 4.28121 7.18446 4.84371C6.60369 5.40621 6.31331 6.09718 6.31331 6.91663C6.31331 7.73607 6.60369 8.42704 7.18446 8.98954Z" fill="#6A5FB6"/>
<path fill-rule="evenodd" clip-rule="evenodd" d="M9.32471 17.3333C8.13449 17.3333 7.01597 17.1145 5.96915 16.677C4.92233 16.2395 4.01173 15.6458 3.23737 14.8958C2.46301 14.1458 1.84998 13.2638 1.39827 12.25C0.946558 11.2361 0.720703 10.1527 0.720703 8.99996C0.720703 7.84718 0.946558 6.76385 1.39827 5.74996C1.84998 4.73607 2.46301 3.85413 3.23737 3.10413C4.01173 2.35413 4.92233 1.76038 5.96915 1.32288C7.01597 0.885376 8.13449 0.666626 9.32471 0.666626C10.5149 0.666626 11.6334 0.885376 12.6803 1.32288C13.7271 1.76038 14.6377 2.35413 15.412 3.10413C16.1864 3.85413 16.7994 4.73607 17.2511 5.74996C17.7029 6.76385 17.9287 7.84718 17.9287 8.99996C17.9287 10.1527 17.7029 11.2361 17.2511 12.25C16.7994 13.2638 16.1864 14.1458 15.412 14.8958C14.6377 15.6458 13.7271 16.2395 12.6803 16.677C11.6334 17.1145 10.5149 17.3333 9.32471 17.3333ZM6.48539 11.9687C5.58197 12.2812 4.03325 13.25 4.03325 13.25C4.15498 13.3719 4.25622 13.4805 4.35053 13.5816C4.6233 13.8742 4.8382 14.1046 5.32385 14.4166C5.88311 14.8194 6.49973 15.1284 7.17371 15.3437C7.84769 15.559 8.56469 15.6666 9.32471 15.6666C10.0847 15.6666 10.8017 15.559 11.4757 15.3437C12.1497 15.1284 12.7663 14.8194 13.3256 14.4166C13.9019 13.9821 14.165 13.7256 14.6162 13.25C13.8848 12.7083 13.0675 12.2812 12.164 11.9687C11.2606 11.6562 10.3142 11.5 9.32471 11.5C8.33525 11.5 7.38881 11.6562 6.48539 11.9687ZM9.32471 9.83329C8.47865 9.83329 7.76523 9.55204 7.18446 8.98954C6.60369 8.42704 6.31331 7.73607 6.31331 6.91663C6.31331 6.09718 6.60369 5.40621 7.18446 4.84371C7.76523 4.28121 8.47865 3.99996 9.32471 3.99996C10.1708 3.99996 10.8842 4.28121 11.465 4.84371C12.0457 5.40621 12.3361 6.09718 12.3361 6.91663C12.3361 7.73607 12.0457 8.42704 11.465 8.98954C10.8842 9.55204 10.1708 9.83329 9.32471 9.83329Z" fill="#6A5FB6"/>
</svg>
