<svg width="141" height="40" viewBox="0 0 141 40" fill="none" xmlns="http://www.w3.org/2000/svg">
<path d="M31.5952 38.3658V17.5098H37.0427V24.358L43.8909 17.5098H51.9065L42.2567 27.1596L53.4629 38.3658H45.6808L38.4435 31.1284L37.0427 32.5292V38.3658H31.5952Z" fill="white"/>
<path d="M54.7081 38.3658V17.5098H60.1555V38.3658H54.7081Z" fill="white"/>
<path d="M63.5797 38.3658V17.5098H69.1049V32.9183H76.6536V38.3658H63.5797Z" fill="white"/>
<path d="M85.2917 17.5098H79.8442V38.3658H92.8404V32.9183H85.2917V17.5098Z" fill="white"/>
<path fill-rule="evenodd" clip-rule="evenodd" d="M105.992 17.432C110.713 17.4742 115.693 20.41 116.42 27.6266C116.67 30.1081 114.266 38.4664 105.992 38.3658C97.8939 38.2673 95.6446 31.5277 95.5641 28.2491C95.3236 25.0849 97.374 17.7925 105.992 17.432ZM105.992 22.9574C101.883 23.1442 100.934 26.5629 101.012 28.2491C101.088 28.3399 101.437 32.9185 105.992 32.9185C109.65 32.9185 110.921 29.7278 111.05 28.1714C110.988 23.8757 107.652 22.9314 105.992 22.9574Z" fill="white"/>
<path fill-rule="evenodd" clip-rule="evenodd" d="M129.65 17.4316C134.37 17.4739 139.35 20.4097 140.078 27.6263C140.328 30.1078 137.924 38.4661 129.65 38.3655C121.551 38.267 119.302 31.5274 119.222 28.2487C118.981 25.0846 121.032 17.7922 129.65 17.4316ZM129.65 22.9571C125.541 23.1438 124.591 26.5626 124.669 28.2487C124.745 28.3396 125.095 32.9182 129.65 32.9182C133.307 32.9182 134.578 29.7275 134.708 28.1711C134.646 23.8754 131.31 22.9311 129.65 22.9571Z" fill="white"/>
<path fill-rule="evenodd" clip-rule="evenodd" d="M1.9861 3.34207C5.69442 -1.47087 10.729 0.805654 11.0097 2.85932C11.0689 1.47116 11.3241 0.85321 12.1237 0C13.3006 2.586 12.9319 3.66594 12.4708 5.01635L12.4708 5.01636C12.442 5.10072 12.4128 5.18614 12.3837 5.27305C11.0573 7.68435 11.4258 9.91367 11.7524 10.5832C15.6316 16.3566 15.0258 19.58 14.3518 21.5007C13.7948 23.2089 12.2309 25.0354 11.3068 24.8428C10.0208 24.2115 10.4738 22.8949 11.3439 21.0551C12.0123 19.644 10.8722 17.5948 10.0813 17.0075L9.71001 17.3788C11.0468 18.6859 11.0592 20.102 10.8983 20.6466C10.8659 20.7155 10.8247 20.7978 10.7778 20.8915L10.7778 20.8915C10.3431 21.7594 9.4181 23.6067 10.4527 24.917C11.511 26.2574 12.8417 25.0161 13.3492 24.2486C14.478 26.3578 14.7603 29.8806 14.7603 31.3784C14.7035 36.4609 12.0322 39.8559 10.3763 39.845H9.33658C9.26231 36.3544 5.97183 36.3172 4.51122 36.8742C5.5294 32.0766 5.3016 31.5111 5.02052 30.8133L4.99397 30.7471L4.51122 31.007C4.92712 31.4823 4.58549 33.6807 4.36268 34.7205C3.7314 37.0599 4.04429 37.5841 4.43695 37.4312C7.95546 36.3208 8.8405 38.6992 8.81879 39.9192L3.3972 39.9935C1.39195 40.142 -0.0085414 37.7306 0.0179871 34.1634C-0.212491 28.2012 1.83102 24.246 2.76592 23.6173C4.3404 25.1027 5.65 25.0532 6.10799 24.8428C7.14078 24.3049 6.82955 23.0491 6.51647 22.5404C5.08246 20.471 5.963 17.7497 6.77641 17.1931L6.59073 16.6732C6.14512 16.7921 5.78616 17.4654 5.66238 17.7873C4.88256 19.7182 5.17964 21.1293 6.03372 22.9118C6.71699 24.3377 5.67476 24.4714 5.06823 24.36C4.11512 24.0506 2.05294 22.8152 1.42909 20.3495C0.805232 17.8838 2.82781 14.569 3.91707 13.2198C5.5142 11.3341 5.62314 9.82915 5.55098 9.43208C6.41249 9.87769 8.57122 9.66726 9.52433 9.43208L9.3758 8.87507C8.55559 9.23153 7.4832 9.28473 6.18226 9.13501C0.509678 7.80603 1.00898 4.62544 1.9861 3.34207ZM5.49586 3.63915C5.57013 3.63915 5.92232 3.69657 5.92232 4.08476C5.92232 4.5675 5.57013 4.5675 5.49586 4.5675C5.42159 4.5675 5.06823 4.53037 5.0311 4.12189C4.99076 3.67811 5.42159 3.63915 5.49586 3.63915ZM25.3806 3.89909C21.2587 -0.185672 15.7258 0.445602 13.312 1.67104C13.3071 1.7654 13.3194 1.92856 13.3354 2.13974C13.3957 2.93508 13.5075 4.41149 12.9407 5.45872C12.0672 7.07253 11.7004 9.18973 12.3094 10.4718C13.8319 12.6256 14.8345 15.225 15.243 16.6361C15.7822 18.9297 15.3085 20.3783 14.918 21.5728C14.8764 21.7 14.8358 21.8242 14.7974 21.9463C21.0954 27.9769 17.7681 30.7966 15.3173 31.4526C15.2554 32.5667 14.9311 35.2181 14.129 36.9114C16.6838 36.7034 16.9017 38.6072 16.6912 39.585C19.3352 39.9118 21.432 39.5479 22.15 39.3251C28.8383 37.1474 29.7662 30.916 29.2426 28.5562C28.5124 25.5661 25.6907 23.9758 24.0007 23.0233C23.8857 22.9585 23.776 22.8967 23.6725 22.8375C23.1526 22.5404 20.961 20.8538 19.9219 19.5326C16.6541 15.1507 20.2273 11.0815 22.2614 11.1402C25.0464 11.1774 25.2816 12.7865 25.0836 13.8139C26.9774 13.1826 30.6796 9.15032 25.3806 3.89909ZM13.9061 37.4312C13.4011 38.6195 12.3093 39.5355 11.8266 39.8449L16.0599 39.8449C16.5525 37.3015 14.7637 37.3763 13.9061 37.4312Z" fill="white"/>
</svg>
