<svg width="300" height="300" viewBox="0 0 300 300" fill="none" xmlns="http://www.w3.org/2000/svg">
<circle cx="150" cy="150" r="150" fill="white"/>
<path fill-rule="evenodd" clip-rule="evenodd" d="M90.9618 73.4871C108.032 51.3319 131.208 61.8113 132.5 71.2648C132.772 64.8748 133.947 62.0302 137.628 58.1027C143.046 70.0067 141.348 74.9779 139.226 81.1942C139.093 81.5826 138.959 81.9758 138.824 82.3759C132.719 93.4757 134.415 103.738 135.919 106.82C153.776 133.396 150.987 148.234 147.884 157.076C145.32 164.939 138.121 173.347 133.867 172.46C127.948 169.554 130.033 163.494 134.038 155.025C137.115 148.529 131.867 139.096 128.226 136.392L126.517 138.102C132.671 144.119 132.728 150.637 131.987 153.144C131.838 153.462 131.648 153.84 131.432 154.271L131.432 154.272C129.431 158.267 125.173 166.77 129.936 172.802C134.807 178.972 140.933 173.258 143.269 169.725C148.465 179.434 149.765 195.651 149.765 202.545C149.503 225.941 137.207 241.569 129.584 241.519H124.798C124.456 225.451 109.309 225.28 102.586 227.844C107.273 205.76 106.224 203.156 104.93 199.944C104.89 199.843 104.849 199.742 104.808 199.639L102.586 200.836C104.5 203.024 102.928 213.143 101.902 217.93C98.9959 228.699 100.436 231.112 102.244 230.408C118.44 225.297 122.514 236.245 122.414 241.861L97.4575 242.203C88.2268 242.887 81.78 231.786 81.9021 215.366C80.8412 187.92 90.248 169.713 94.5515 166.819C101.799 173.657 107.828 173.429 109.936 172.46C114.69 169.984 113.257 164.204 111.816 161.862C105.215 152.336 109.269 139.809 113.013 137.247L112.158 134.854C110.107 135.401 108.455 138.501 107.885 139.982C104.295 148.871 105.663 155.366 109.594 163.571C112.739 170.135 107.942 170.751 105.15 170.238C100.762 168.814 91.2695 163.127 88.3978 151.777C85.526 140.426 94.8364 125.167 99.8506 118.957C107.203 110.276 107.704 103.349 107.372 101.521C111.338 103.572 121.275 102.604 125.662 101.521L124.979 98.9569C121.203 100.598 116.266 100.843 110.278 100.153C84.1655 94.0358 86.4639 79.3948 90.9618 73.4871ZM107.118 74.8546C107.46 74.8546 109.081 75.1189 109.081 76.9059C109.081 79.1281 107.46 79.1281 107.118 79.1281C106.776 79.1281 105.15 78.9571 104.979 77.0768C104.793 75.034 106.776 74.8546 107.118 74.8546ZM198.652 76.0514C179.678 57.2482 154.208 60.1541 143.098 65.7951C143.075 66.2295 143.132 66.9805 143.205 67.9526L143.205 67.9527C143.483 71.6138 143.997 78.4101 141.388 83.2308C137.367 90.6596 135.679 100.406 138.482 106.307C145.491 116.222 150.106 128.187 151.986 134.683C154.468 145.241 152.288 151.909 150.49 157.408C150.299 157.993 150.112 158.565 149.935 159.127C178.926 186.888 163.61 199.868 152.328 202.887C152.043 208.016 150.55 220.221 146.858 228.015C158.619 227.058 159.622 235.821 158.653 240.323C170.824 241.827 180.476 240.152 183.781 239.126C214.569 229.102 218.84 200.417 216.43 189.554C213.069 175.79 200.08 168.469 192.3 164.085C191.771 163.787 191.266 163.502 190.789 163.23C188.396 161.862 178.308 154.098 173.524 148.016C158.482 127.846 174.93 109.114 184.294 109.384C197.114 109.555 198.197 116.963 197.285 121.692C206.003 118.786 223.045 100.224 198.652 76.0514ZM145.833 230.408C143.508 235.878 138.482 240.095 136.26 241.519L155.747 241.519C158.015 229.811 149.78 230.155 145.833 230.408Z" fill="#6A5FB6"/>
</svg>
