<svg width="225" height="64" viewBox="0 0 225 64" fill="none" xmlns="http://www.w3.org/2000/svg">
<path d="M50.5527 61.3851V28.0155H59.2687V38.9727L70.2259 28.0155H83.0508L67.6111 43.4552L85.5411 61.3851H73.0897L61.5099 49.8054L59.2687 52.0466V61.3851H50.5527Z" fill="#6A5FB6"/>
<path d="M87.5333 61.3851V28.0155H96.2492V61.3851H87.5333Z" fill="#6A5FB6"/>
<path d="M101.728 61.3851V28.0155H110.568V52.6692H122.646V61.3851H101.728Z" fill="#6A5FB6"/>
<path d="M136.467 28.0155H127.751V61.3851H148.545V52.6692H136.467V28.0155Z" fill="#6A5FB6"/>
<path fill-rule="evenodd" clip-rule="evenodd" d="M169.588 27.891C177.141 27.9587 185.109 32.6559 186.273 44.2025C186.673 48.1729 182.827 61.5461 169.588 61.3851C156.631 61.2275 153.032 50.4443 152.903 45.1984C152.518 40.1357 155.799 28.4679 169.588 27.891ZM169.588 36.7317C163.013 37.0305 161.494 42.5006 161.619 45.1984C161.741 45.3437 162.3 52.6694 169.588 52.6694C175.44 52.6694 177.474 47.5644 177.681 45.0741C177.582 38.201 172.244 36.6902 169.588 36.7317Z" fill="#6A5FB6"/>
<path fill-rule="evenodd" clip-rule="evenodd" d="M207.44 27.8905C214.993 27.9582 222.961 32.6554 224.125 44.202C224.525 48.1724 220.679 61.5456 207.44 61.3846C194.483 61.227 190.884 50.4438 190.755 45.1979C190.37 40.1352 193.651 28.4674 207.44 27.8905ZM207.44 36.7312C200.866 37.03 199.347 42.5001 199.471 45.1979C199.593 45.3432 200.152 52.6689 207.44 52.6689C213.292 52.6689 215.326 47.5639 215.533 45.0736C215.434 38.2004 210.096 36.6897 207.44 36.7312Z" fill="#6A5FB6"/>
<path fill-rule="evenodd" clip-rule="evenodd" d="M3.17775 5.34731C9.11108 -2.35339 17.1664 1.28905 17.6155 4.57491C17.7103 2.35386 18.1186 1.36514 19.398 0C21.281 4.1376 20.6911 5.8655 19.9533 8.02615L19.953 8.02694C19.907 8.16168 19.8605 8.29809 19.8139 8.43688C17.6917 12.295 18.2813 15.8619 18.8038 16.9332C25.0106 26.1706 24.0413 31.328 22.9628 34.4011C22.0716 37.1342 19.5694 40.0566 18.0908 39.7484C16.0334 38.7384 16.7581 36.6318 18.1503 33.6881C19.2197 31.4304 17.3956 28.1516 16.1302 27.2119L15.536 27.8061C17.6749 29.8975 17.6947 32.1631 17.4373 33.0346C17.3854 33.1449 17.3195 33.2765 17.2445 33.4263L17.2444 33.4264C16.549 34.8151 15.069 37.7707 16.7243 39.8672C18.4176 42.0119 20.5466 40.0257 21.3586 38.7978C23.1649 42.1725 23.6164 47.809 23.6164 50.2054C23.5257 58.3374 19.2515 63.7694 16.6021 63.7519H14.9385C14.8197 58.167 9.55493 58.1075 7.21796 58.9988C8.84704 51.3226 8.48256 50.4177 8.03284 49.3012L7.99035 49.1953L7.21796 49.6112C7.8834 50.3718 7.33678 53.8891 6.9803 55.5527C5.97025 59.2958 6.47086 60.1346 7.09913 59.89C12.7287 58.1133 14.1448 61.9188 14.1101 63.8708L5.43551 63.9896C2.22712 64.2273 -0.0136662 60.369 0.0287793 54.6615C-0.339986 45.1219 2.92964 38.7936 4.42547 37.7877C6.94465 40.1643 9.04001 40.0851 9.77279 39.7484C11.4253 38.8879 10.9273 36.8786 10.4263 36.0647C8.13193 32.7537 9.5408 28.3995 10.8423 27.509L10.5452 26.6772C9.8322 26.8673 9.25786 27.9447 9.05981 28.4596C7.8121 31.5492 8.28742 33.8069 9.65396 36.6589C10.7472 38.9404 9.07962 39.1543 8.10918 38.976C6.5842 38.4809 3.2847 36.5044 2.28654 32.5592C1.28837 28.6141 4.52449 23.3104 6.26732 21.1516C8.82273 18.1345 8.99702 15.7266 8.88157 15.0913C10.26 15.8043 13.714 15.4676 15.2389 15.0913L15.0013 14.2001C13.6889 14.7705 11.9731 14.8556 9.89161 14.616C0.815484 12.4896 1.61437 7.4007 3.17775 5.34731ZM8.79337 5.82264C8.9122 5.82264 9.47571 5.91451 9.47571 6.53561C9.47571 7.308 8.9122 7.308 8.79337 7.308C8.67454 7.308 8.10918 7.24859 8.04976 6.59503C7.98521 5.88498 8.67454 5.82264 8.79337 5.82264ZM40.6087 6.23849C34.0137 -0.297133 25.1609 0.712905 21.2989 2.67361C21.291 2.82459 21.3108 3.08565 21.3364 3.42353C21.4328 4.69607 21.6117 7.05832 20.7048 8.73388C19.3072 11.316 18.7204 14.7035 19.6947 16.7549C22.1307 20.2009 23.7349 24.3599 24.3885 26.6177C25.2511 30.2875 24.4933 32.6052 23.8684 34.5165L23.8684 34.5166C23.8019 34.7199 23.7369 34.9187 23.6755 35.114C33.7523 44.763 28.4287 49.2745 24.5073 50.3242C24.4083 52.1066 23.8894 56.3488 22.6061 59.0581C26.6938 58.7254 27.0424 61.7714 26.7057 63.3359C30.936 63.8588 34.291 63.2765 35.4396 62.92C46.141 59.4357 47.6256 49.4655 46.7878 45.6898C45.6196 40.9056 41.1048 38.3612 38.4007 36.8372C38.2168 36.7335 38.0412 36.6346 37.8756 36.54C37.0438 36.0646 33.5373 33.366 31.8747 31.252C26.6463 24.2411 32.3634 17.7303 35.6179 17.8243C40.074 17.8837 40.4503 20.4584 40.1334 22.1022C43.1635 21.0921 49.087 14.6404 40.6087 6.23849ZM22.25 59.8899C21.442 61.7911 19.6952 63.2567 18.9228 63.7518L25.6961 63.7518C26.4843 59.6824 23.6222 59.8021 22.25 59.8899Z" fill="#6A5FB6"/>
</svg>
