<svg width="210" height="210" viewBox="0 0 210 210" fill="none" xmlns="http://www.w3.org/2000/svg">
<circle cx="105" cy="105" r="105" fill="#584F9B"/>
<path fill-rule="evenodd" clip-rule="evenodd" d="M63.6726 51.441C75.6218 35.9323 91.8446 43.2679 92.7491 49.8854C92.94 45.4124 93.7624 43.4212 96.3388 40.6719C100.131 49.0047 98.943 52.4845 97.4573 56.8359L97.4569 56.8371C97.3642 57.1086 97.2703 57.3835 97.1764 57.6631C92.9026 65.433 94.0899 72.6165 95.1423 74.774C107.642 93.3775 105.69 103.764 103.518 109.953C101.723 115.457 96.6842 121.343 93.7064 120.722C89.5628 118.688 91.0223 114.446 93.8261 108.517C95.9799 103.97 92.3062 97.3671 89.7577 95.4746L88.5612 96.6712C92.8688 100.883 92.9087 105.446 92.3902 107.201C92.2858 107.423 92.153 107.688 92.0018 107.99C90.6013 110.787 87.6206 116.739 90.9543 120.961C94.3645 125.281 98.6522 121.281 100.288 118.808C103.925 125.604 104.834 136.956 104.834 141.782C104.652 158.159 96.0439 169.099 90.7083 169.063H87.3579C87.1186 157.816 76.5157 157.696 71.8092 159.491C75.0901 144.032 74.356 142.209 73.4504 139.961C73.422 139.89 73.3934 139.819 73.3648 139.748L71.8092 140.585C73.1494 142.117 72.0486 149.2 71.3306 152.551C69.2964 160.089 70.3047 161.778 71.5699 161.286C82.9075 157.708 85.7594 165.372 85.6894 169.303L68.2195 169.542C61.7581 170.021 57.2453 162.25 57.3308 150.756C56.5881 131.544 63.1729 118.799 66.1854 116.773C71.2588 121.56 75.4787 121.4 76.9545 120.722C80.2824 118.989 79.2795 114.943 78.2707 113.303C73.6499 106.635 76.4873 97.8663 79.1083 96.0729L78.51 94.3977C77.0741 94.7806 75.9174 96.9504 75.5186 97.9874C73.0058 104.21 73.9631 108.756 76.7152 114.5C78.9168 119.095 75.5585 119.526 73.6041 119.167C70.5329 118.169 63.888 114.189 61.8777 106.244C59.8675 98.2985 66.3848 87.6172 69.8947 83.2696C75.0411 77.1935 75.3921 72.3441 75.1596 71.0647C77.9357 72.5005 84.8917 71.8225 87.9629 71.0647L87.4843 69.2698C84.8413 70.4184 81.3858 70.5899 77.1938 70.1074C58.9152 65.8251 60.524 55.5763 63.6726 51.441ZM74.982 52.3982C75.2213 52.3982 76.3562 52.5832 76.3562 53.8341C76.3562 55.3896 75.2213 55.3896 74.982 55.3896C74.7427 55.3896 73.6041 55.27 73.4844 53.9538C73.3544 52.5238 74.7427 52.3982 74.982 52.3982ZM139.056 53.236C125.775 40.0737 107.946 42.1079 100.168 46.0566C100.152 46.3607 100.192 46.8864 100.243 47.5669C100.438 50.1297 100.798 54.8871 98.9714 58.2615C96.1568 63.4617 94.9749 70.2839 96.9372 74.4152C101.843 81.3553 105.074 89.7312 106.39 94.2782C108.127 101.669 106.601 106.337 105.343 110.186C105.209 110.595 105.078 110.996 104.954 111.389C125.248 130.821 114.527 139.907 106.629 142.021C106.43 145.611 105.385 154.154 102.8 159.611C111.033 158.941 111.735 165.075 111.057 168.226C119.576 169.279 126.333 168.106 128.646 167.388C150.198 160.371 153.188 140.292 151.501 132.688C149.148 123.053 140.055 117.929 134.61 114.859C134.239 114.651 133.886 114.451 133.552 114.261C131.877 113.304 124.815 107.869 121.467 103.611C110.937 89.4919 122.451 76.3796 129.005 76.569C137.979 76.6887 138.737 81.8738 138.099 85.1843C144.202 83.1501 156.131 70.1569 139.056 53.236ZM102.082 161.286C100.455 165.115 96.9371 168.066 95.3815 169.063L109.022 169.063C110.61 160.868 104.846 161.109 102.082 161.286Z" fill="white"/>
</svg>
