<svg width="400" height="119" viewBox="0 0 400 119" fill="none" xmlns="http://www.w3.org/2000/svg">
<path d="M385.081 2.25294C391.837 2.25294 397.748 7.60364 397.748 14.9257V103.635C397.748 110.393 392.4 116.307 385.081 116.307H14.9191C8.16326 116.307 2.25193 110.957 2.25193 103.635V14.9257C2.25193 8.16687 7.60028 2.25294 14.9191 2.25294H385.081ZM385.081 0H14.9191C6.7558 0 0 6.75879 0 14.9257V103.635C0 111.802 6.7558 118.56 14.9191 118.56H385.081C393.244 118.56 400 111.802 400 103.635V14.9257C399.719 6.75879 393.244 0 385.081 0Z" fill="#4F5362"/>
<path d="M140.746 30.1329C140.746 32.3859 140.183 34.6388 138.494 36.0469C136.805 37.7366 134.835 38.863 132.02 38.863C129.205 38.863 127.234 37.7366 125.545 36.0469C123.856 34.3572 122.73 32.1042 122.73 29.5697C122.73 26.7535 123.856 24.7822 125.545 23.0925C127.234 21.4028 129.486 20.2764 132.02 20.2764C133.427 20.2764 134.272 20.558 135.679 20.8396C136.805 21.1212 137.65 21.966 138.494 22.8109L136.805 24.5006C135.679 23.0925 133.99 22.5293 132.02 22.5293C130.049 22.5293 128.642 23.0925 127.234 24.5006C125.827 25.9087 125.264 27.5984 125.264 29.5697C125.264 31.541 125.827 33.2307 127.234 34.6388C128.642 36.0469 130.331 36.6101 132.02 36.6101C133.99 36.6101 135.679 36.0469 137.087 34.6388C138.213 33.5123 138.494 32.6675 138.494 30.9778H132.02V28.7248H140.464C140.746 29.5697 140.746 29.8513 140.746 30.1329ZM154.258 23.0925H146.094V29.0065H153.695V30.6962H146.094V36.3285H154.258V38.2998H143.842V20.558H154.258V23.0925ZM164.11 38.2998H161.858V23.0925H156.791V20.8396H168.895V22.8109H163.828V38.5814H164.11V38.2998ZM177.621 38.2998V20.558H179.873V38.2998H177.621ZM190.289 38.2998H188.037V23.0925H183.251V20.8396H195.355V22.8109H190.289V38.2998ZM218.438 36.3285C216.749 38.0182 214.497 39.1446 211.963 39.1446C209.148 39.1446 207.178 38.0182 205.489 36.3285C203.8 34.6388 202.674 32.3858 202.674 29.8513C202.674 27.5984 203.8 25.0638 205.489 23.3741C206.897 21.4028 209.148 20.2764 211.682 20.2764C214.497 20.2764 216.467 21.4028 218.156 23.0925C219.845 24.7822 220.971 27.0351 220.971 29.5697C220.971 32.1042 220.127 34.0755 218.438 36.3285ZM206.897 34.6388C208.304 36.0469 209.993 36.6101 211.682 36.6101C213.371 36.6101 215.06 36.0469 216.467 34.6388C217.875 33.2307 218.438 31.541 218.438 29.5697C218.438 27.5984 217.875 25.9087 216.467 24.5006C215.06 23.0925 213.371 22.5293 211.682 22.5293C209.993 22.5293 208.304 23.0925 206.897 24.5006C205.489 25.9087 204.926 27.5984 204.926 29.5697C204.926 31.541 205.489 33.2307 206.897 34.6388ZM224.349 38.2998V20.558H227.164L235.609 34.6388V20.558H237.861V38.2998H235.609L226.319 23.6558V38.2998H224.349Z" fill="#4F5362" stroke="#4F5362" stroke-width="0.2413" stroke-miterlimit="10"/>
<path d="M202.112 64.4902C195.074 64.4902 189.445 69.8409 189.445 77.1629C189.445 84.2033 195.074 89.8357 202.112 89.8357C209.149 89.8357 214.779 84.485 214.779 77.1629C214.779 69.5593 208.867 64.4902 202.112 64.4902ZM202.112 84.485C198.452 84.485 195.074 81.3872 195.074 76.8813C195.074 72.3755 198.452 69.2777 202.112 69.2777C205.771 69.2777 209.149 72.3755 209.149 76.8813C209.43 81.3872 205.771 84.485 202.112 84.485ZM174.807 64.4902C167.77 64.4902 162.14 69.8409 162.14 77.1629C162.14 84.2033 167.77 89.8357 174.807 89.8357C181.844 89.8357 187.474 84.485 187.474 77.1629C187.193 69.5593 181.563 64.4902 174.807 64.4902ZM174.807 84.485C171.148 84.485 167.77 81.3872 167.77 76.8813C167.77 72.3755 171.148 69.2777 174.807 69.2777C178.466 69.2777 181.844 72.3755 181.844 76.8813C181.844 81.3872 178.466 84.485 174.807 84.485ZM141.872 68.1512V73.5019H154.821C154.54 76.5997 153.414 78.571 151.725 80.2607C150.036 81.9504 146.939 84.2033 141.872 84.2033C133.991 84.2033 128.079 77.7262 128.079 69.8409C128.079 61.9557 134.272 55.4785 141.872 55.4785C146.376 55.4785 149.473 57.1682 151.443 59.1395L155.103 55.4785C152.006 52.944 147.502 50.4094 141.309 50.4094C130.331 50.4094 121.605 59.1395 121.605 70.1225C121.605 81.1056 130.894 89.8357 141.309 89.8357C146.939 89.8357 151.443 87.8643 154.821 84.485C158.199 81.1056 159.606 76.0365 159.606 71.8122C159.606 70.4042 159.606 69.5593 159.325 68.4329L141.872 68.1512ZM275.863 72.3755C274.737 69.5593 271.922 64.4902 265.447 64.4902C258.973 64.4902 253.625 69.5593 253.625 77.1629C253.625 84.2033 258.973 89.8357 266.292 89.8357C271.922 89.8357 275.581 86.4563 276.707 84.485L272.203 81.6688C270.796 83.6401 268.825 85.0482 266.01 85.0482C263.195 85.0482 261.225 83.6401 259.818 81.3872L276.707 74.3468L275.863 72.3755ZM258.973 76.5997C258.973 71.8122 262.632 68.9961 265.447 68.9961C267.418 68.9961 269.388 70.1225 270.233 71.8122L258.973 76.5997ZM244.898 88.9908H250.247V51.8175H244.898V88.9908ZM236.172 67.3064C234.765 65.8983 232.513 64.4902 229.416 64.4902C222.942 64.4902 217.312 69.8409 217.312 77.1629C217.312 84.2033 222.942 89.8357 229.416 89.8357C232.513 89.8357 234.765 88.4276 236.172 87.0195H236.454V88.7092C236.454 93.4967 233.639 96.3128 229.698 96.3128C226.32 96.3128 224.35 94.0599 223.224 91.807L218.438 93.7783C219.846 97.1577 223.505 101.382 229.698 101.382C236.172 101.382 241.521 97.7209 241.521 88.146V65.3351H236.454L236.172 67.3064ZM229.698 84.485C226.038 84.485 222.661 81.3872 222.661 76.8813C222.661 72.3755 225.757 68.9961 229.698 68.9961C233.357 68.9961 236.454 72.3755 236.454 76.8813C236.454 81.3872 233.357 84.485 229.698 84.485ZM302.041 51.8175H288.811V88.9908H294.16V74.6284H302.041C308.234 74.6284 314.145 70.1225 314.145 63.0821C314.145 56.0417 307.953 51.8175 302.041 51.8175ZM302.041 69.5593H294.16V56.8866H302.041C305.982 56.8866 308.516 60.266 308.516 63.3638C308.234 66.1799 305.982 69.5593 302.041 69.5593ZM336.102 64.4902C332.161 64.4902 327.939 66.1799 326.25 70.4042L331.035 72.3755C332.161 70.4042 334.131 69.5593 336.102 69.5593C338.917 69.5593 341.732 71.249 341.732 74.3468V74.6284C340.606 74.0652 338.635 73.2203 336.102 73.2203C330.753 73.2203 325.687 76.3181 325.687 81.6688C325.687 86.7379 330.191 89.8357 334.976 89.8357C338.635 89.8357 340.606 88.146 342.013 86.1746H342.295V88.9908H347.643V74.6284C347.362 67.8696 342.295 64.4902 336.102 64.4902ZM335.539 84.485C333.85 84.485 331.035 83.3585 331.035 81.3872C331.035 78.571 334.131 77.4446 336.665 77.4446C338.917 77.4446 340.324 78.0078 341.732 78.8526C341.732 82.232 338.635 84.485 335.539 84.485ZM366.784 65.0534L360.31 81.1056H360.029L353.554 65.0534H347.361L357.214 87.5827L351.584 100.255H357.214L372.414 65.3351H366.784V65.0534ZM317.242 88.9908H322.59V51.8175H317.242V88.9908Z" fill="#4F5362"/>
<path d="M31.2458 22.5293C30.6829 23.0925 29.8384 24.7822 29.8384 26.4719V91.8068C29.8384 93.4965 30.4014 95.1862 31.2458 95.7495L31.5273 96.0311L68.1213 59.421V58.8578L31.2458 22.5293Z" fill="url(#paint0_linear_1438_186)"/>
<path d="M80.5065 71.812L68.4023 59.7025V59.1393L80.5065 47.0298H80.788L95.4256 55.1966C99.3665 57.4496 99.3665 61.3922 95.4256 63.6451L80.5065 71.812Z" fill="url(#paint1_linear_1438_186)"/>
<path d="M80.7882 71.5306L68.121 58.8579L31.2456 95.7496C32.6531 97.1577 34.905 97.4393 37.4384 96.0312L80.7882 71.5306Z" fill="url(#paint2_linear_1438_186)"/>
<path d="M80.7882 46.7483L37.4384 21.9661C35.1865 20.5581 32.6531 20.5581 31.2456 22.2477L68.121 59.1394L80.7882 46.7483Z" fill="url(#paint3_linear_1438_186)"/>
<path opacity="0.2" d="M80.5069 71.5305L37.4387 96.0311C35.1867 97.4392 32.9348 97.4392 31.8088 96.0311L31.5273 96.3127L31.8088 96.5943C33.2163 98.0024 35.1867 98.0024 37.4387 96.5943L80.5069 71.5305Z" fill="black"/>
<path opacity="0.12" d="M31.2458 95.7495C30.6829 94.623 29.8384 93.4966 29.8384 91.8069V92.0885C29.8384 93.7782 30.4014 95.4679 31.2458 96.0311V95.7495ZM95.426 63.082L80.5069 71.5305L80.7884 71.8121L95.426 63.6453C97.3964 62.5188 98.5224 60.8291 98.5224 59.1394C98.2409 60.8291 97.1149 61.9556 95.426 63.082Z" fill="black"/>
<path opacity="0.25" d="M37.4385 22.811L95.1444 55.7601C97.1148 56.8866 98.2408 58.013 98.2408 59.4211C98.2408 57.7314 97.1148 56.3233 95.1444 54.9153L37.4385 21.9662C33.4976 19.7133 30.1197 21.6846 30.1197 26.4721V26.7537C29.8383 21.9662 33.4976 20.2765 37.4385 22.811Z" fill="white"/>
<defs>
<linearGradient id="paint0_linear_1438_186" x1="65.0536" y1="25.8034" x2="15.381" y2="75.4543" gradientUnits="userSpaceOnUse">
<stop stop-color="#00A0FF"/>
<stop offset="0.007" stop-color="#00A1FF"/>
<stop offset="0.26" stop-color="#00BEFF"/>
<stop offset="0.512" stop-color="#00D2FF"/>
<stop offset="0.76" stop-color="#00DFFF"/>
<stop offset="1" stop-color="#00E3FF"/>
</linearGradient>
<linearGradient id="paint1_linear_1438_186" x1="100.66" y1="59.3775" x2="29.0771" y2="59.3775" gradientUnits="userSpaceOnUse">
<stop stop-color="#FFE000"/>
<stop offset="0.409" stop-color="#FFBD00"/>
<stop offset="0.775" stop-color="#FFA500"/>
<stop offset="1" stop-color="#FF9C00"/>
</linearGradient>
<linearGradient id="paint2_linear_1438_186" x1="73.9246" y1="65.9332" x2="6.56626" y2="133.262" gradientUnits="userSpaceOnUse">
<stop stop-color="#FF3A44"/>
<stop offset="1" stop-color="#C31162"/>
</linearGradient>
<linearGradient id="paint3_linear_1438_186" x1="22.0859" y1="0.617673" x2="52.1636" y2="30.6855" gradientUnits="userSpaceOnUse">
<stop stop-color="#32A071"/>
<stop offset="0.069" stop-color="#2DA771"/>
<stop offset="0.476" stop-color="#15CF74"/>
<stop offset="0.801" stop-color="#06E775"/>
<stop offset="1" stop-color="#00F076"/>
</linearGradient>
</defs>
</svg>
