<svg width="210" height="210" viewBox="0 0 210 210" fill="none" xmlns="http://www.w3.org/2000/svg">
<circle cx="105" cy="105" r="105" fill="url(#paint0_linear_512_1542)"/>
<path fill-rule="evenodd" clip-rule="evenodd" d="M63.6727 51.441C75.622 35.9323 91.8447 43.2679 92.7493 49.8854C92.9401 45.4124 93.7625 43.4212 96.339 40.6719C100.131 49.0047 98.9431 52.4845 97.4574 56.8359L97.457 56.8371C97.3643 57.1086 97.2704 57.3835 97.1766 57.6631C92.9028 65.433 94.09 72.6165 95.1424 74.774C107.642 93.3775 105.69 103.764 103.518 109.953C101.724 115.457 96.6843 121.343 93.7065 120.722C89.5629 118.688 91.0224 114.446 93.8262 108.517C95.98 103.97 92.3064 97.3671 89.7579 95.4746L88.5613 96.6712C92.8689 100.883 92.9088 105.446 92.3903 107.201C92.2859 107.423 92.1531 107.688 92.0019 107.99C90.6014 110.787 87.6207 116.739 90.9544 120.961C94.3646 125.281 98.6523 121.281 100.288 118.808C103.925 125.604 104.835 136.956 104.835 141.782C104.652 158.159 96.044 169.099 90.7084 169.063H87.358C87.1187 157.816 76.5159 157.696 71.8094 159.491C75.0902 144.032 74.3562 142.209 73.4505 139.961C73.4221 139.89 73.3935 139.819 73.3649 139.748L71.8094 140.585C73.1495 142.117 72.0487 149.2 71.3307 152.551C69.2966 160.089 70.3048 161.778 71.57 161.286C82.9076 157.708 85.7595 165.372 85.6895 169.303L68.2197 169.542C61.7582 170.021 57.2454 162.25 57.3309 150.756C56.5882 131.544 63.173 118.799 66.1855 116.773C71.2589 121.56 75.4788 121.4 76.9546 120.722C80.2825 118.989 79.2796 114.943 78.2708 113.303C73.65 106.635 76.4874 97.8663 79.1084 96.0729L78.5101 94.3977C77.0743 94.7806 75.9176 96.9504 75.5187 97.9874C73.0059 104.21 73.9632 108.756 76.7153 114.5C78.917 119.095 75.5586 119.526 73.6042 119.167C70.533 118.169 63.8881 114.189 61.8779 106.244C59.8676 98.2985 66.3849 87.6172 69.8949 83.2696C75.0413 77.1935 75.3923 72.3441 75.1597 71.0647C77.9358 72.5005 84.8918 71.8225 87.963 71.0647L87.4844 69.2698C84.8414 70.4184 81.3859 70.5899 77.1939 70.1074C58.9153 65.8251 60.5242 55.5763 63.6727 51.441ZM74.9821 52.3982C75.2214 52.3982 76.3563 52.5832 76.3563 53.8341C76.3563 55.3896 75.2214 55.3896 74.9821 55.3896C74.7428 55.3896 73.6042 55.27 73.4846 53.9538C73.3546 52.5238 74.7428 52.3982 74.9821 52.3982ZM139.057 53.236C125.775 40.0737 107.946 42.1079 100.168 46.0566C100.152 46.3607 100.192 46.8864 100.244 47.5669C100.438 50.1297 100.798 54.8871 98.9715 58.2615C96.1569 63.4617 94.975 70.2839 96.9374 74.4152C101.843 81.3553 105.074 89.7312 106.39 94.2782C108.128 101.669 106.601 106.337 105.343 110.186C105.209 110.595 105.078 110.996 104.954 111.389C125.248 130.821 114.527 139.907 106.63 142.021C106.43 145.611 105.385 154.154 102.801 159.611C111.033 158.941 111.735 165.075 111.057 168.226C119.576 169.279 126.333 168.106 128.646 167.388C150.198 160.371 153.188 140.292 151.501 132.688C149.148 123.053 140.056 117.929 134.61 114.859C134.239 114.651 133.886 114.451 133.552 114.261C131.877 113.304 124.815 107.869 121.467 103.611C110.937 89.4919 122.451 76.3796 129.005 76.569C137.98 76.6887 138.737 81.8738 138.099 85.1843C144.202 83.1501 156.131 70.1569 139.057 53.236ZM102.082 161.286C100.455 165.115 96.9372 168.066 95.3816 169.063L109.022 169.063C110.61 160.868 104.846 161.109 102.082 161.286Z" fill="white"/>
<defs>
<linearGradient id="paint0_linear_512_1542" x1="105" y1="0" x2="105" y2="210" gradientUnits="userSpaceOnUse">
<stop stop-color="#6A5FB6"/>
<stop offset="1" stop-color="#A398F2"/>
</linearGradient>
</defs>
</svg>
